<svg width="25" height="25" viewBox="0 0 25 25" fill="none" xmlns="http://www.w3.org/2000/svg">
<path d="M17.5 11.25H10.425L11.9875 9.61248C12.2162 9.37213 12.3401 9.05075 12.3319 8.71904C12.3237 8.38734 12.1841 8.07248 11.9437 7.84373C11.7034 7.61498 11.382 7.49108 11.0503 7.49928C10.7186 7.50749 10.4037 7.64713 10.175 7.88748L6.6 11.6375C6.55827 11.6886 6.52065 11.7429 6.4875 11.8C6.4298 11.8717 6.38342 11.9517 6.35 12.0375C6.30606 12.1493 6.28072 12.2675 6.275 12.3875L6.25 12.5C6.25197 12.6633 6.28595 12.8247 6.35 12.975C6.41093 13.124 6.50006 13.2598 6.6125 13.375L10.3625 17.125C10.4787 17.2421 10.617 17.3351 10.7693 17.3986C10.9216 17.4621 11.085 17.4947 11.25 17.4947C11.415 17.4947 11.5784 17.4621 11.7307 17.3986C11.883 17.3351 12.0213 17.2421 12.1375 17.125C12.2547 17.0088 12.3477 16.8705 12.4111 16.7182C12.4746 16.5659 12.5072 16.4025 12.5072 16.2375C12.5072 16.0725 12.4746 15.9091 12.4111 15.7568C12.3477 15.6044 12.2547 15.4662 12.1375 15.35L10.5125 13.75H17.5C17.8315 13.75 18.1495 13.6183 18.3839 13.3839C18.6183 13.1494 18.75 12.8315 18.75 12.5C18.75 12.1685 18.6183 11.8505 18.3839 11.6161C18.1495 11.3817 17.8315 11.25 17.5 11.25Z" fill="#F9F9F8"/>
<path d="M12.5 0C10.0277 0 7.61099 0.733112 5.55538 2.10663C3.49976 3.48015 1.89761 5.43238 0.951511 7.71646C0.00541605 10.0005 -0.242126 12.5139 0.24019 14.9386C0.722505 17.3634 1.91301 19.5907 3.66117 21.3388C5.40933 23.087 7.63661 24.2775 10.0614 24.7598C12.4861 25.2421 14.9995 24.9946 17.2835 24.0485C19.5676 23.1024 21.5199 21.5002 22.8934 19.4446C24.2669 17.389 25 14.9723 25 12.5C25 10.8585 24.6767 9.23303 24.0485 7.71646C23.4203 6.19989 22.4996 4.8219 21.3388 3.66116C20.1781 2.50043 18.8001 1.57969 17.2835 0.951506C15.767 0.323322 14.1415 0 12.5 0V0ZM12.5 22.5C10.5222 22.5 8.58879 21.9135 6.9443 20.8147C5.29981 19.7159 4.01809 18.1541 3.26121 16.3268C2.50433 14.4996 2.3063 12.4889 2.69215 10.5491C3.07801 8.60929 4.03041 6.82746 5.42894 5.42893C6.82746 4.03041 8.60929 3.078 10.5491 2.69215C12.4889 2.3063 14.4996 2.50433 16.3268 3.2612C18.1541 4.01808 19.7159 5.29981 20.8147 6.9443C21.9135 8.58879 22.5 10.5222 22.5 12.5C22.5 15.1522 21.4464 17.6957 19.5711 19.5711C17.6957 21.4464 15.1522 22.5 12.5 22.5V22.5Z" fill="#F9F9F8"/>
</svg>
