<svg width="25" height="25" viewBox="0 0 25 25" fill="none" xmlns="http://www.w3.org/2000/svg">
<path fill-rule="evenodd" clip-rule="evenodd" d="M12.5 25C15.8152 25 18.9946 23.683 21.3388 21.3388C23.683 18.9946 25 15.8152 25 12.5C25 9.18479 23.683 6.00537 21.3388 3.66117C18.9946 1.31696 15.8152 0 12.5 0C9.18479 0 6.00537 1.31696 3.66117 3.66117C1.31696 6.00537 0 9.18479 0 12.5C0 15.8152 1.31696 18.9946 3.66117 21.3388C6.00537 23.683 9.18479 25 12.5 25ZM13.6047 8.91719C13.8893 8.6225 14.0468 8.22781 14.0432 7.81812C14.0397 7.40844 13.8754 7.01655 13.5857 6.72685C13.296 6.43715 12.9041 6.27282 12.4944 6.26926C12.0847 6.2657 11.69 6.42319 11.3953 6.70781L6.70781 11.3953C6.41489 11.6883 6.25033 12.0857 6.25033 12.5C6.25033 12.9143 6.41489 13.3117 6.70781 13.6047L11.3953 18.2922C11.69 18.5768 12.0847 18.7343 12.4944 18.7307C12.9041 18.7272 13.296 18.5629 13.5857 18.2732C13.8754 17.9835 14.0397 17.5916 14.0432 17.1819C14.0468 16.7722 13.8893 16.3775 13.6047 16.0828L11.5844 14.0625H17.1875C17.6019 14.0625 17.9993 13.8979 18.2924 13.6049C18.5854 13.3118 18.75 12.9144 18.75 12.5C18.75 12.0856 18.5854 11.6882 18.2924 11.3951C17.9993 11.1021 17.6019 10.9375 17.1875 10.9375H11.5844L13.6047 8.91719Z" fill="#6b7688"/>
</svg>
