<svg width="25" height="25" viewBox="0 0 25 25" fill="none" xmlns="http://www.w3.org/2000/svg">
<path d="M18.75 12.5V12.3875C18.7443 12.2675 18.7189 12.1493 18.675 12.0375C18.6416 11.9517 18.5952 11.8717 18.5375 11.8C18.5043 11.7429 18.4667 11.6886 18.425 11.6375L14.85 7.88748C14.7367 7.76847 14.6011 7.67293 14.451 7.60633C14.3008 7.53972 14.1389 7.50335 13.9747 7.49928C13.643 7.49108 13.3216 7.61498 13.0812 7.84373C12.8409 8.07248 12.7013 8.38734 12.6931 8.71904C12.6848 9.05075 12.8088 9.37213 13.0375 9.61248L14.575 11.25H7.5C7.16848 11.25 6.85054 11.3817 6.61612 11.6161C6.3817 11.8505 6.25 12.1685 6.25 12.5C6.25 12.8315 6.3817 13.1494 6.61612 13.3839C6.85054 13.6183 7.16848 13.75 7.5 13.75H14.4875L12.8625 15.3625C12.7453 15.4787 12.6523 15.6169 12.5889 15.7693C12.5254 15.9216 12.4928 16.085 12.4928 16.25C12.4928 16.415 12.5254 16.5784 12.5889 16.7307C12.6523 16.883 12.7453 17.0213 12.8625 17.1375C12.9787 17.2546 13.117 17.3476 13.2693 17.4111C13.4216 17.4746 13.585 17.5072 13.75 17.5072C13.915 17.5072 14.0784 17.4746 14.2307 17.4111C14.383 17.3476 14.5213 17.2546 14.6375 17.1375L18.3875 13.3875C18.4999 13.2723 18.5891 13.1365 18.65 12.9875C18.7157 12.8333 18.7497 12.6675 18.75 12.5Z" fill="#F9F9F8"/>
<path d="M12.5 0C10.0277 0 7.61099 0.733112 5.55538 2.10663C3.49976 3.48015 1.89761 5.43238 0.951511 7.71646C0.00541605 10.0005 -0.242126 12.5139 0.24019 14.9386C0.722505 17.3634 1.91301 19.5907 3.66117 21.3388C5.40933 23.087 7.63661 24.2775 10.0614 24.7598C12.4861 25.2421 14.9995 24.9946 17.2835 24.0485C19.5676 23.1024 21.5199 21.5002 22.8934 19.4446C24.2669 17.389 25 14.9723 25 12.5C25 10.8585 24.6767 9.23303 24.0485 7.71646C23.4203 6.19989 22.4996 4.8219 21.3388 3.66116C20.1781 2.50043 18.8001 1.57969 17.2835 0.951506C15.767 0.323322 14.1415 0 12.5 0V0ZM12.5 22.5C10.5222 22.5 8.58879 21.9135 6.9443 20.8147C5.29981 19.7159 4.01809 18.1541 3.26121 16.3268C2.50433 14.4996 2.3063 12.4889 2.69215 10.5491C3.07801 8.60929 4.03041 6.82746 5.42894 5.42893C6.82746 4.03041 8.60929 3.078 10.5491 2.69215C12.4889 2.3063 14.4996 2.50433 16.3268 3.2612C18.1541 4.01808 19.7159 5.29981 20.8147 6.9443C21.9135 8.58879 22.5 10.5222 22.5 12.5C22.5 15.1522 21.4464 17.6957 19.5711 19.5711C17.6957 21.4464 15.1522 22.5 12.5 22.5V22.5Z" fill="#F9F9F8"/>
</svg>
