<svg width="35" height="25" viewBox="0 0 35 25" fill="none" xmlns="http://www.w3.org/2000/svg">
<path d="M17.045 17.0455C19.5554 17.0455 21.5904 15.0104 21.5904 12.5C21.5904 9.98966 19.5554 7.95459 17.045 7.95459C14.5346 7.95459 12.4995 9.98966 12.4995 12.5C12.4995 15.0104 14.5346 17.0455 17.045 17.0455Z" fill="white"/>
<path d="M34.0222 12.1136C32.6857 8.65642 30.3654 5.66661 27.3481 3.51373C24.3309 1.36086 20.7489 0.139287 17.045 0C13.341 0.139287 9.75905 1.36086 6.74179 3.51373C3.72453 5.66661 1.40424 8.65642 0.0676984 12.1136C-0.0225661 12.3633 -0.0225661 12.6367 0.0676984 12.8864C1.40424 16.3436 3.72453 19.3334 6.74179 21.4863C9.75905 23.6391 13.341 24.8607 17.045 25C20.7489 24.8607 24.3309 23.6391 27.3481 21.4863C30.3654 19.3334 32.6857 16.3436 34.0222 12.8864C34.1125 12.6367 34.1125 12.3633 34.0222 12.1136V12.1136ZM17.045 19.8864C15.5841 19.8864 14.156 19.4532 12.9413 18.6415C11.7266 17.8299 10.7799 16.6763 10.2209 15.3266C9.6618 13.977 9.51553 12.4918 9.80053 11.059C10.0855 9.62618 10.789 8.31005 11.822 7.27705C12.855 6.24405 14.1711 5.54057 15.604 5.25556C17.0368 4.97056 18.5219 5.11683 19.8716 5.67589C21.2213 6.23495 22.3749 7.18168 23.1865 8.39636C23.9981 9.61104 24.4313 11.0391 24.4313 12.5C24.4283 14.4581 23.6492 16.3351 22.2646 17.7196C20.88 19.1042 19.003 19.8834 17.045 19.8864V19.8864Z" fill="white"/>
</svg>
