<svg width="246" height="59" viewBox="0 0 246 59" fill="none" xmlns="http://www.w3.org/2000/svg">
<circle cx="124.556" cy="19.6667" r="9.17778" fill="url(#paint0_linear_8_13)"/>
<circle cx="115.378" cy="28.8444" r="9.17778" fill="url(#paint1_linear_8_13)"/>
<path d="M46.0054 35.6416V43.3379C46.0054 43.7594 45.891 44.1689 45.6621 44.5664C45.4333 44.9518 44.9455 45.1445 44.1988 45.1445C43.4038 45.1445 42.8679 44.9578 42.5908 44.5845C42.3138 44.2111 42.1753 43.7956 42.1753 43.3379V42.2539C41.5972 43.109 40.8565 43.8076 39.9531 44.3496C39.0619 44.8796 37.9598 45.1445 36.647 45.1445C36.4302 45.1445 36.0749 45.1265 35.5811 45.0903C35.0993 45.0542 34.5573 44.9578 33.9551 44.8013C33.3529 44.6447 32.7326 44.4098 32.0943 44.0967C31.48 43.7956 30.9019 43.356 30.3599 42.7778C29.842 42.2118 29.4084 41.5132 29.0591 40.6821C28.7219 39.8511 28.5532 38.8333 28.5532 37.6289V27.5117C28.5532 26.5241 28.6737 25.6509 28.9146 24.8921C29.1555 24.1213 29.4746 23.4588 29.8721 22.9048C30.2575 22.3387 30.7031 21.869 31.209 21.4956C31.7149 21.1222 32.2328 20.8091 32.7627 20.5562C33.9792 19.9901 35.3823 19.6589 36.9722 19.5625C38.3211 19.5625 39.4654 19.7131 40.4048 20.0142C41.3563 20.3153 42.1633 20.7067 42.8257 21.1885C43.4881 21.6702 44.0181 22.2122 44.4156 22.8145C44.813 23.4408 45.1201 24.061 45.3369 24.6753C45.5537 25.3016 45.6922 25.9038 45.7525 26.4819C45.8247 27.0601 45.8609 27.5599 45.8609 27.9814C45.8609 28.5957 45.6862 29.1257 45.3369 29.5713C44.9997 30.0049 44.2108 30.2217 42.9702 30.2217C42.5607 30.2217 42.1031 30.1795 41.5972 30.0952C41.0913 30.0109 40.6577 29.8423 40.2964 29.5894C39.9351 29.3364 39.7544 28.957 39.7544 28.4512C39.7544 27.1624 39.5738 26.1507 39.2124 25.416C38.8631 24.6693 38.1164 24.2959 36.9722 24.2959C36.382 24.2959 35.9243 24.4163 35.5991 24.6572C35.286 24.8981 35.0572 25.1631 34.9126 25.4521C34.732 25.8255 34.6356 26.2109 34.6236 26.6084V38.1709C34.6236 38.9417 34.8885 39.5981 35.4185 40.1401C35.9605 40.6821 36.635 40.9531 37.4419 40.9531C38.4055 40.9531 39.1944 40.5677 39.8086 39.7969C40.4349 39.014 40.9348 38.1348 41.3081 37.1592H39.5738C39.2365 37.123 38.9294 37.0327 38.6524 36.8882C38.4115 36.7677 38.1947 36.5871 38.002 36.3462C37.8213 36.1053 37.731 35.7741 37.731 35.3525C37.731 34.8949 37.8213 34.5456 38.002 34.3047C38.1947 34.0518 38.4115 33.8651 38.6524 33.7446C38.9535 33.6001 39.2606 33.5218 39.5738 33.5098H44.271C44.6203 33.5098 44.9937 33.6543 45.3911 33.9434C45.8006 34.2204 46.0054 34.7865 46.0054 35.6416ZM50.0884 40.8086V23.8262C50.0884 23.0553 50.1306 22.3628 50.2149 21.7485C50.3112 21.1222 50.5521 20.6284 50.9375 20.2671C51.3229 19.8937 51.9432 19.707 52.7984 19.707H58.7603C60.2538 19.7793 61.5786 20.0924 62.7349 20.6465C63.2287 20.8874 63.7105 21.1825 64.1802 21.5317C64.662 21.881 65.0895 22.3206 65.4629 22.8506C65.8363 23.3685 66.1374 23.9888 66.3662 24.7114C66.5951 25.422 66.7095 26.2471 66.7095 27.1865C66.7095 27.584 66.6493 28.0417 66.5288 28.5596C66.4084 29.0775 66.2097 29.6195 65.9326 30.1855C65.752 30.571 65.481 30.9624 65.1197 31.3599C64.7824 31.7332 64.3669 32.0765 63.8731 32.3896C63.3913 32.7028 62.8192 32.9557 62.1568 33.1484C63.1444 33.5339 63.9995 34.1421 64.7222 34.9731C65.4448 35.8042 65.8062 36.9544 65.8062 38.4238V40.9893C65.8062 41.1338 65.8423 41.2542 65.9146 41.3506C65.9868 41.4469 66.0591 41.5312 66.1314 41.6035C66.4084 41.8805 66.577 42.1274 66.6372 42.3442C66.6854 42.5369 66.7095 42.7116 66.7095 42.8682C66.7095 43.6751 66.4144 44.2593 65.8242 44.6206C65.2341 44.9699 64.5656 45.1445 63.8189 45.1445C62.9758 45.1445 62.1869 44.8916 61.4522 44.3857C60.7175 43.8678 60.3501 43.1572 60.3501 42.2539V38.4238C60.3501 37.3158 60.1695 36.4305 59.8081 35.7681C59.4468 35.1056 58.7001 34.7744 57.5679 34.7744H55.5445V40.8086C55.5445 41.6035 55.4963 42.3201 55.3999 42.9585C55.3036 43.5848 55.0627 44.0846 54.6773 44.458C54.3039 44.8193 53.6776 45 52.7984 45C51.9432 45 51.3229 44.8193 50.9375 44.458C50.5521 44.0846 50.3112 43.5848 50.2149 42.9585C50.1306 42.3201 50.0884 41.6035 50.0884 40.8086ZM55.5445 23.9707V30.7275H58.0015C58.6037 30.7035 59.1457 30.5589 59.6275 30.2939C60.1092 30.041 60.5007 29.6616 60.8018 29.1558C61.1029 28.6499 61.2534 27.9935 61.2534 27.1865C61.2534 26.4639 61.1029 25.8677 60.8018 25.3979C60.5127 24.9282 60.1454 24.585 59.6997 24.3682C59.2661 24.1393 58.7482 24.0068 58.146 23.9707H55.5445ZM73.3941 19.707H80.4761C81.1988 19.707 81.8732 19.7612 82.4995 19.8696C83.1379 19.966 83.6498 20.1948 84.0352 20.5562C84.4326 20.9175 84.6314 21.4896 84.6314 22.2725C84.6314 23.0553 84.4326 23.6274 84.0352 23.9888C83.6498 24.3501 83.1379 24.585 82.4995 24.6934C81.8732 24.7897 81.1988 24.8379 80.4761 24.8379H76.1763V29.752H78.4527C79.1633 29.752 79.8257 29.8001 80.44 29.8965C81.0542 29.9808 81.548 30.1976 81.9214 30.5469C82.3068 30.8841 82.4995 31.4382 82.4995 32.209C82.4995 32.9798 82.3068 33.5399 81.9214 33.8892C81.548 34.2264 81.0542 34.4432 80.44 34.5396C79.8257 34.6239 79.1633 34.666 78.4527 34.666H76.1763V39.8691H80.4761C81.1988 39.8691 81.8732 39.9173 82.4995 40.0137C83.1379 40.11 83.6498 40.3389 84.0352 40.7002C84.4326 41.0495 84.6314 41.6156 84.6314 42.3984C84.6314 43.1934 84.4326 43.7775 84.0352 44.1509C83.6377 44.5122 83.1198 44.7471 82.4815 44.8555C81.8552 44.9518 81.1867 45 80.4761 45H73.3941C72.5389 45 71.9186 44.8133 71.5332 44.4399C71.1599 44.0666 70.925 43.5667 70.8286 42.9404C70.7323 42.3141 70.6841 41.6156 70.6841 40.8447V23.8623C70.6841 23.0915 70.7323 22.3929 70.8286 21.7666C70.925 21.1403 71.1599 20.6405 71.5332 20.2671C71.9186 19.8937 72.5389 19.707 73.3941 19.707ZM105.335 35.6416V43.3379C105.335 43.7594 105.221 44.1689 104.992 44.5664C104.763 44.9518 104.276 45.1445 103.529 45.1445C102.734 45.1445 102.198 44.9578 101.921 44.5845C101.644 44.2111 101.505 43.7956 101.505 43.3379V42.2539C100.927 43.109 100.187 43.8076 99.2832 44.3496C98.3919 44.8796 97.2899 45.1445 95.9771 45.1445C95.7603 45.1445 95.405 45.1265 94.9112 45.0903C94.4294 45.0542 93.8874 44.9578 93.2852 44.8013C92.683 44.6447 92.0627 44.4098 91.4243 44.0967C90.8101 43.7956 90.232 43.356 89.69 42.7778C89.1721 42.2118 88.7385 41.5132 88.3892 40.6821C88.0519 39.8511 87.8833 38.8333 87.8833 37.6289V27.5117C87.8833 26.5241 88.0038 25.6509 88.2447 24.8921C88.4855 24.1213 88.8047 23.4588 89.2022 22.9048C89.5876 22.3387 90.0332 21.869 90.5391 21.4956C91.0449 21.1222 91.5628 20.8091 92.0928 20.5562C93.3093 19.9901 94.7124 19.6589 96.3023 19.5625C97.6512 19.5625 98.7954 19.7131 99.7349 20.0142C100.686 20.3153 101.493 20.7067 102.156 21.1885C102.818 21.6702 103.348 22.2122 103.746 22.8145C104.143 23.4408 104.45 24.061 104.667 24.6753C104.884 25.3016 105.022 25.9038 105.083 26.4819C105.155 27.0601 105.191 27.5599 105.191 27.9814C105.191 28.5957 105.016 29.1257 104.667 29.5713C104.33 30.0049 103.541 30.2217 102.3 30.2217C101.891 30.2217 101.433 30.1795 100.927 30.0952C100.421 30.0109 99.9878 29.8423 99.6265 29.5894C99.2652 29.3364 99.0845 28.957 99.0845 28.4512C99.0845 27.1624 98.9038 26.1507 98.5425 25.416C98.1932 24.6693 97.4465 24.2959 96.3023 24.2959C95.7121 24.2959 95.2544 24.4163 94.9292 24.6572C94.6161 24.8981 94.3872 25.1631 94.2427 25.4521C94.062 25.8255 93.9657 26.2109 93.9536 26.6084V38.1709C93.9536 38.9417 94.2186 39.5981 94.7486 40.1401C95.2906 40.6821 95.965 40.9531 96.772 40.9531C97.7355 40.9531 98.5244 40.5677 99.1387 39.7969C99.765 39.014 100.265 38.1348 100.638 37.1592H98.9038C98.5666 37.123 98.2595 37.0327 97.9824 36.8882C97.7416 36.7677 97.5248 36.5871 97.3321 36.3462C97.1514 36.1053 97.0611 35.7741 97.0611 35.3525C97.0611 34.8949 97.1514 34.5456 97.3321 34.3047C97.5248 34.0518 97.7416 33.8651 97.9824 33.7446C98.2836 33.6001 98.5907 33.5218 98.9038 33.5098H103.601C103.95 33.5098 104.324 33.6543 104.721 33.9434C105.131 34.2204 105.335 34.7865 105.335 35.6416ZM132.11 26.0664C132.122 26.5723 132.266 27.0299 132.543 27.4395C132.833 27.8369 133.212 28.2163 133.682 28.5776C134.067 28.8787 134.603 29.234 135.29 29.6436C135.976 30.0531 136.572 30.4084 137.078 30.7095C137.692 31.0828 138.295 31.4984 138.885 31.9561C139.475 32.4017 140.005 32.9076 140.475 33.4736C140.944 34.0397 141.324 34.6781 141.613 35.3887C141.902 36.0993 142.058 36.9062 142.083 37.8096V37.9541C142.083 38.9176 141.962 39.7788 141.721 40.5376C141.239 41.9709 140.457 43.0368 139.373 43.7354C138.819 44.0967 138.265 44.3737 137.71 44.5664C137.12 44.7712 136.524 44.9157 135.922 45C135.332 45.0843 134.772 45.1325 134.242 45.1445H134.061C133.061 45.1445 132.164 45.0422 131.369 44.8374C130.598 44.6326 129.936 44.3617 129.382 44.0244C128.828 43.6751 128.37 43.2777 128.009 42.832C127.635 42.3864 127.34 41.9227 127.124 41.4409C126.907 40.9712 126.75 40.5015 126.654 40.0317C126.557 39.562 126.509 39.1224 126.509 38.7129C126.509 37.8939 126.756 37.2796 127.25 36.8701C127.756 36.4606 128.364 36.2559 129.075 36.2559C129.761 36.2559 130.394 36.4666 130.972 36.8882C131.562 37.2977 131.869 37.8939 131.893 38.6768C131.917 39.5801 132.122 40.2004 132.507 40.5376C132.893 40.8628 133.447 41.0254 134.169 41.0254C134.952 41.0013 135.561 40.8026 135.994 40.4292C136.44 40.0558 136.663 39.3874 136.663 38.4238C136.663 37.5928 136.416 36.8581 135.922 36.2197C135.44 35.5814 134.826 34.9972 134.079 34.4673C133.332 33.9253 132.556 33.4014 131.749 32.8955C130.905 32.3535 130.111 31.7874 129.364 31.1973C128.617 30.5951 128.009 29.9146 127.539 29.1558C127.069 28.397 126.822 27.5117 126.798 26.5V26.2109C126.81 24.9222 126.979 23.8503 127.304 22.9951C127.641 22.14 128.135 21.4595 128.786 20.9536C129.424 20.4478 130.213 20.0924 131.152 19.8877C132.092 19.6709 133.17 19.5625 134.386 19.5625H134.856C135.94 19.5625 136.879 19.6829 137.674 19.9238C138.445 20.1647 139.084 20.4718 139.589 20.8452C140.107 21.2186 140.517 21.6401 140.818 22.1099C141.107 22.5675 141.324 23.0312 141.468 23.501C141.613 23.9587 141.703 24.3862 141.739 24.7837C141.775 25.1812 141.793 25.5003 141.793 25.7412C141.793 26.4518 141.535 27.0299 141.017 27.4756C140.511 27.9092 139.89 28.126 139.156 28.126C138.602 28.126 138.06 27.9212 137.53 27.5117C137 27.1022 136.735 26.6566 136.735 26.1748C136.735 25.1872 136.554 24.5007 136.193 24.1152C135.844 23.7298 135.326 23.5371 134.639 23.5371C133.844 23.5371 133.224 23.6816 132.778 23.9707C132.333 24.2598 132.11 24.9583 132.11 26.0664ZM159.715 25.0186L154.295 34.6299V40.917C154.295 41.6517 154.235 42.3322 154.115 42.9585C153.994 43.5728 153.741 44.0666 153.356 44.4399C152.983 44.8133 152.392 45 151.585 45C150.779 45 150.176 44.8133 149.779 44.4399C149.393 44.0666 149.14 43.5728 149.02 42.9585C148.9 42.3322 148.839 41.6517 148.839 40.917V34.6299L143.456 25.0186C143.167 24.5127 142.89 24.0189 142.625 23.5371C142.36 23.0433 142.227 22.5495 142.227 22.0557C142.227 21.7305 142.317 21.4053 142.498 21.0801C142.691 20.7428 143.034 20.4297 143.528 20.1406C144.07 19.8516 144.576 19.707 145.045 19.707C145.756 19.707 146.346 20.0021 146.816 20.5923C147.298 21.1704 147.695 21.8027 148.008 22.4893L151.296 29.3906H151.875L155.163 22.4893C155.476 21.8027 155.867 21.1704 156.337 20.5923C156.819 20.0021 157.415 19.707 158.126 19.707C158.583 19.707 159.089 19.8516 159.643 20.1406C160.113 20.4297 160.444 20.7428 160.637 21.0801C160.842 21.4053 160.944 21.7305 160.944 22.0557C160.944 22.2845 160.848 22.6338 160.655 23.1035C160.558 23.3444 160.432 23.6274 160.275 23.9526C160.119 24.2778 159.932 24.6331 159.715 25.0186ZM170.917 35.0273H168.604V40.8809C168.604 41.6517 168.556 42.3503 168.46 42.9766C168.363 43.6029 168.116 44.0967 167.719 44.458C167.333 44.8193 166.701 45 165.822 45C164.967 45 164.346 44.8193 163.961 44.458C163.576 44.0846 163.335 43.5908 163.238 42.9766C163.154 42.3503 163.112 41.6517 163.112 40.8809V23.8262C163.112 23.0553 163.154 22.3628 163.238 21.7485C163.335 21.1222 163.576 20.6284 163.961 20.2671C164.346 19.8937 164.967 19.707 165.822 19.707H171.784C173.301 19.7793 174.638 20.0924 175.794 20.6465C176.3 20.8874 176.794 21.1885 177.276 21.5498C177.758 21.8991 178.185 22.3387 178.559 22.8687C178.944 23.3866 179.245 24.0068 179.462 24.7295C179.691 25.4521 179.805 26.2832 179.805 27.2227C179.805 28.5114 179.6 29.6436 179.191 30.6191C178.793 31.5827 178.215 32.3896 177.457 33.04C175.915 34.3649 173.735 35.0273 170.917 35.0273ZM168.604 23.9707V30.7275H171.061C171.663 30.6914 172.205 30.5469 172.687 30.2939C173.169 30.041 173.56 29.6676 173.861 29.1738C174.162 28.668 174.313 28.0176 174.313 27.2227C174.313 26.4759 174.162 25.8797 173.861 25.4341C173.572 24.9764 173.211 24.6271 172.777 24.3862C172.356 24.1694 171.844 24.0309 171.242 23.9707H168.604ZM185.334 19.707H192.416C193.138 19.707 193.813 19.7612 194.439 19.8696C195.077 19.966 195.589 20.1948 195.975 20.5562C196.372 20.9175 196.571 21.4896 196.571 22.2725C196.571 23.0553 196.372 23.6274 195.975 23.9888C195.589 24.3501 195.077 24.585 194.439 24.6934C193.813 24.7897 193.138 24.8379 192.416 24.8379H188.116V29.752H190.392C191.103 29.752 191.765 29.8001 192.379 29.8965C192.994 29.9808 193.487 30.1976 193.861 30.5469C194.246 30.8841 194.439 31.4382 194.439 32.209C194.439 32.9798 194.246 33.5399 193.861 33.8892C193.487 34.2264 192.994 34.4432 192.379 34.5396C191.765 34.6239 191.103 34.666 190.392 34.666H188.116V39.8691H192.416C193.138 39.8691 193.813 39.9173 194.439 40.0137C195.077 40.11 195.589 40.3389 195.975 40.7002C196.372 41.0495 196.571 41.6156 196.571 42.3984C196.571 43.1934 196.372 43.7775 195.975 44.1509C195.577 44.5122 195.059 44.7471 194.421 44.8555C193.795 44.9518 193.126 45 192.416 45H185.334C184.478 45 183.858 44.8133 183.473 44.4399C183.099 44.0666 182.864 43.5667 182.768 42.9404C182.672 42.3141 182.624 41.6156 182.624 40.8447V23.8623C182.624 23.0915 182.672 22.3929 182.768 21.7666C182.864 21.1403 183.099 20.6405 183.473 20.2671C183.858 19.8937 184.478 19.707 185.334 19.707ZM200.437 40.8447V23.8262C200.437 23.0674 200.497 22.3809 200.618 21.7666C200.738 21.1403 200.991 20.6405 201.376 20.2671C201.762 19.8937 202.352 19.707 203.147 19.707C203.966 19.707 204.574 19.8937 204.972 20.2671C205.369 20.6284 205.628 21.1222 205.749 21.7485C205.869 22.3748 205.929 23.0674 205.929 23.8262V30.3301H207.989C208.194 29.8122 208.392 29.3003 208.585 28.7944C208.79 28.2765 208.988 27.7707 209.181 27.2769C209.326 26.9276 209.5 26.494 209.705 25.9761C209.91 25.4461 210.091 25.0005 210.247 24.6392C210.416 24.2056 210.578 23.79 210.735 23.3926C210.904 22.9831 211.06 22.6217 211.205 22.3086C211.494 21.6341 211.837 21.0319 212.234 20.502C212.644 19.972 213.204 19.707 213.915 19.707C214.637 19.707 215.288 19.9299 215.866 20.3755C216.444 20.8211 216.733 21.4414 216.733 22.2363C216.733 22.9229 216.54 23.7178 216.155 24.6211L212.903 32.3174C213.529 32.5462 214.083 32.9196 214.565 33.4375C215.059 33.9554 215.456 34.6359 215.757 35.479C216.071 36.3101 216.227 37.3037 216.227 38.46V41.0254C216.227 41.1458 216.275 41.2542 216.372 41.3506C216.42 41.3988 216.468 41.4469 216.516 41.4951C216.564 41.5312 216.612 41.5794 216.661 41.6396C216.902 41.9167 217.04 42.1576 217.076 42.3623C217.112 42.5671 217.13 42.7357 217.13 42.8682C217.13 43.7113 216.841 44.3014 216.263 44.6387C215.685 44.9759 214.999 45.1445 214.204 45.1445C213.361 45.1445 212.572 44.8916 211.837 44.3857C211.102 43.8678 210.735 43.1331 210.735 42.1816V38.46C210.735 37.3639 210.548 36.4787 210.175 35.8042C209.814 35.1177 209.073 34.7744 207.953 34.7744H205.929V40.8447C205.929 41.6156 205.869 42.3141 205.749 42.9404C205.628 43.5667 205.369 44.0666 204.972 44.4399C204.574 44.8133 203.966 45 203.147 45C202.352 45 201.762 44.8133 201.376 44.4399C200.991 44.0666 200.738 43.5667 200.618 42.9404C200.497 42.3021 200.437 41.6035 200.437 40.8447Z" fill="#1E1E1E"/>
<defs>
<linearGradient id="paint0_linear_8_13" x1="124.32" y1="19.4313" x2="143.852" y2="1.54644" gradientUnits="userSpaceOnUse">
<stop stop-color="#313BAC"/>
<stop offset="0.386713" stop-color="#313BAC" stop-opacity="0"/>
</linearGradient>
<linearGradient id="paint1_linear_8_13" x1="115.142" y1="28.6091" x2="134.675" y2="10.7242" gradientUnits="userSpaceOnUse">
<stop stop-color="#313BAC"/>
<stop offset="0.386713" stop-color="#313BAC" stop-opacity="0"/>
</linearGradient>
</defs>
</svg>
