<svg width="25" height="25" viewBox="0 0 25 25" fill="none" xmlns="http://www.w3.org/2000/svg">
<path fill-rule="evenodd" clip-rule="evenodd" d="M12.5 25C15.8152 25 18.9946 23.683 21.3388 21.3388C23.683 18.9946 25 15.8152 25 12.5C25 9.18479 23.683 6.00537 21.3388 3.66117C18.9946 1.31696 15.8152 0 12.5 0C9.18479 0 6.00537 1.31696 3.66117 3.66117C1.31696 6.00537 0 9.18479 0 12.5C0 15.8152 1.31696 18.9946 3.66117 21.3388C6.00537 23.683 9.18479 25 12.5 25ZM10.4797 8.27031C10.185 7.98569 9.79031 7.8282 9.38062 7.83176C8.97094 7.83532 8.57905 7.99965 8.28935 8.28935C7.99965 8.57905 7.83532 8.97094 7.83176 9.38062C7.8282 9.79031 7.98569 10.185 8.27031 10.4797L10.2906 12.5L8.27031 14.5203C8.12108 14.6644 8.00204 14.8369 7.92015 15.0275C7.83827 15.2181 7.79516 15.4232 7.79336 15.6306C7.79156 15.8381 7.83109 16.0438 7.90965 16.2359C7.98822 16.4279 8.10424 16.6023 8.25095 16.7491C8.39765 16.8958 8.57211 17.0118 8.76413 17.0903C8.95616 17.1689 9.16191 17.2084 9.36938 17.2066C9.57684 17.2048 9.78188 17.1617 9.97251 17.0798C10.1631 16.998 10.3356 16.8789 10.4797 16.7297L12.5 14.7094L14.5203 16.7297C14.815 17.0143 15.2097 17.1718 15.6194 17.1682C16.0291 17.1647 16.421 17.0004 16.7107 16.7107C17.0004 16.421 17.1647 16.0291 17.1682 15.6194C17.1718 15.2097 17.0143 14.815 16.7297 14.5203L14.7094 12.5L16.7297 10.4797C17.0143 10.185 17.1718 9.79031 17.1682 9.38062C17.1647 8.97094 17.0004 8.57905 16.7107 8.28935C16.421 7.99965 16.0291 7.83532 15.6194 7.83176C15.2097 7.8282 14.815 7.98569 14.5203 8.27031L12.5 10.2906L10.4797 8.27031Z" fill="#6b7688"/>
</svg>
